<svg aria-hidden="true" style="position: absolute; width: 0; height: 0; overflow: hidden;" version="1.1" xmlns="http://www.w3.org/2000/svg" xmlns:xlink="http://www.w3.org/1999/xlink">
<defs>

<symbol id="icon-antenna" viewBox="0 0 32 32">
<path fill="#2e2f42" style="fill: var(--color1, #2e2f42)" d="M30.773 22.098l-8.443-8.505 0.937-4.615c0.242 0.094 0.499 0.144 0.758 0.146h0.006c1.192 0.014 2.17-0.941 2.184-2.133s-0.941-2.17-2.133-2.184c-1.192-0.014-2.17 0.941-2.184 2.133-0.003 0.255 0.039 0.509 0.125 0.749l-4.96 0.605-8.091-8.133c-0.099-0.101-0.235-0.159-0.377-0.16-0.14 0.001-0.274 0.056-0.373 0.155l-1.513 1.504c-0.208 0.208-0.208 0.546 0 0.754l0.814 0.826c-3.153 5.798-2.129 12.978 2.519 17.663 0.043 0.041 0.092 0.074 0.146 0.098-0.034 0.18-0.051 0.364-0.052 0.547v6.187h-6.4c-1.472 0.002-2.665 1.195-2.667 2.667v1.067c0 0.295 0.239 0.533 0.533 0.533h24.533c0.295 0 0.533-0.239 0.533-0.533v-1.067c-0.002-1.472-1.195-2.665-2.667-2.667h-6.4v-2.742c1.003 0.21 2.024 0.317 3.049 0.32 2.458-0.003 4.877-0.615 7.040-1.783l0.818 0.823c0.099 0.101 0.235 0.159 0.377 0.16 0.14-0.001 0.274-0.056 0.373-0.155l1.513-1.504c0.208-0.208 0.208-0.546 0-0.754zM23.28 6.233c0.418-0.415 1.093-0.414 1.509 0.004s0.414 1.093-0.004 1.508c-0.2 0.199-0.47 0.31-0.752 0.31h-0.003c-0.589-0.003-1.064-0.483-1.061-1.072 0.002-0.282 0.115-0.552 0.314-0.751h-0.002zM22.024 9.738l-0.598 2.946-1.175-1.182 1.774-1.763zM21.419 8.836l-1.92 1.909-1.485-1.493 3.405-0.415zM24.004 28.8c0.884 0 1.6 0.716 1.6 1.6v0.533h-23.467v-0.533c0-0.884 0.716-1.6 1.6-1.6h20.267zM16.537 26.667v1.067h-5.333v-1.067h5.333zM11.204 25.6v-4.053c0-1.294 1.196-2.347 2.667-2.347s2.667 1.053 2.667 2.347v4.053h-5.333zM17.604 23.904v-2.357c0-1.882-1.675-3.413-3.733-3.413-1.331-0.020-2.576 0.657-3.281 1.786-4.058-4.274-4.971-10.645-2.279-15.887l18.602 18.708c-2.872 1.461-6.165 1.873-9.309 1.163zM28.893 23.22l-21.057-21.181 0.755-0.752 7.935 7.98c0.004 0 0.006 0.007 0.010 0.010l13.115 13.191-0.757 0.752z"></path>
<path fill="#4d5ae5" style="fill: var(--color2, #4d5ae5)" d="M13.876 20.267h-0.005c-0.884-0.001-1.601 0.714-1.602 1.598s0.714 1.601 1.598 1.602h0.005c0.884 0.001 1.601-0.714 1.602-1.598s-0.714-1.601-1.598-1.602zM14.249 22.245c-0.1 0.1-0.236 0.156-0.378 0.155-0.295-0.002-0.532-0.242-0.531-0.536 0.001-0.141 0.057-0.276 0.157-0.375s0.233-0.154 0.373-0.155c0.295 0.002 0.532 0.242 0.531 0.536-0.001 0.141-0.057 0.276-0.157 0.375h0.005z"></path>
</symbol>

<symbol id="icon-astronaut" viewBox="0 0 32 32">
<path fill="#4d5ae5" style="fill: var(--color2, #4d5ae5)" d="M31.974 4.524c-0.063-0.193-0.229-0.333-0.43-0.363l-1.91-0.278-0.855-1.731c-0.179-0.365-0.777-0.365-0.956 0l-0.855 1.731-1.91 0.278c-0.201 0.029-0.367 0.17-0.431 0.363-0.062 0.193-0.011 0.405 0.135 0.547l1.383 1.348-0.326 1.903c-0.034 0.2 0.048 0.402 0.212 0.522 0.166 0.121 0.382 0.135 0.562 0.040l1.709-0.899 1.709 0.899c0.078 0.041 0.164 0.061 0.249 0.061 0.11 0 0.221-0.034 0.314-0.102 0.164-0.119 0.246-0.322 0.212-0.522l-0.326-1.903 1.383-1.348c0.145-0.142 0.197-0.354 0.135-0.547zM29.511 5.851c-0.125 0.122-0.183 0.299-0.153 0.472l0.191 1.114-1-0.526c-0.078-0.041-0.163-0.061-0.249-0.061s-0.17 0.020-0.249 0.061l-1.001 0.526 0.191-1.114c0.030-0.173-0.028-0.349-0.153-0.472l-0.81-0.789 1.119-0.163c0.174-0.025 0.324-0.134 0.402-0.292l0.5-1.013 0.5 1.013c0.078 0.157 0.228 0.267 0.402 0.292l1.119 0.163-0.809 0.789z"></path>
<path fill="#4d5ae5" style="fill: var(--color2, #4d5ae5)" d="M26.133 20.522h-1.067v1.067h1.067v-1.067z"></path>
<path fill="#4d5ae5" style="fill: var(--color2, #4d5ae5)" d="M26.133 22.656h-1.067v1.067h1.067v-1.067z"></path>
<path fill="#4d5ae5" style="fill: var(--color2, #4d5ae5)" d="M27.2 21.589h-1.067v1.067h1.067v-1.067z"></path>
<path fill="#4d5ae5" style="fill: var(--color2, #4d5ae5)" d="M25.067 21.589h-1.067v1.067h1.067v-1.067z"></path>
<path fill="#4d5ae5" style="fill: var(--color2, #4d5ae5)" d="M22.4 26.389h-1.067v1.067h1.067v-1.067z"></path>
<path fill="#4d5ae5" style="fill: var(--color2, #4d5ae5)" d="M22.4 28.522h-1.067v1.067h1.067v-1.067z"></path>
<path fill="#4d5ae5" style="fill: var(--color2, #4d5ae5)" d="M23.467 27.456h-1.067v1.067h1.067v-1.067z"></path>
<path fill="#4d5ae5" style="fill: var(--color2, #4d5ae5)" d="M21.333 27.456h-1.067v1.067h1.067v-1.067z"></path>
<path fill="#4d5ae5" style="fill: var(--color2, #4d5ae5)" d="M16 24.256h-1.067v1.067h1.067v-1.067z"></path>
<path fill="#4d5ae5" style="fill: var(--color2, #4d5ae5)" d="M16 26.389h-1.067v1.067h1.067v-1.067z"></path>
<path fill="#4d5ae5" style="fill: var(--color2, #4d5ae5)" d="M17.067 25.322h-1.067v1.067h1.067v-1.067z"></path>
<path fill="#4d5ae5" style="fill: var(--color2, #4d5ae5)" d="M14.933 25.322h-1.067v1.067h1.067v-1.067z"></path>
<path fill="#4d5ae5" style="fill: var(--color2, #4d5ae5)" d="M5.867 6.122h-1.067v1.067h1.067v-1.067z"></path>
<path fill="#4d5ae5" style="fill: var(--color2, #4d5ae5)" d="M5.867 8.255h-1.067v1.067h1.067v-1.067z"></path>
<path fill="#4d5ae5" style="fill: var(--color2, #4d5ae5)" d="M6.933 7.189h-1.067v1.067h1.067v-1.067z"></path>
<path fill="#4d5ae5" style="fill: var(--color2, #4d5ae5)" d="M4.8 7.189h-1.067v1.067h1.067v-1.067z"></path>
<path fill="#2e2f42" style="fill: var(--color1, #2e2f42)" d="M24.715 14.159c-0.287-0.388-0.709-0.637-1.188-0.705-0.481-0.068-0.956 0.058-1.34 0.352l-1.252 0.96-1.898 1.417-1.358-0.541c2.421-1.086 4.114-3.508 4.114-6.32 0-3.823-3.123-6.933-6.961-6.933s-6.961 3.11-6.961 6.933c0 1.386 0.414 2.674 1.12 3.758l-2.764-0.024c-0.002 0-0.003 0-0.005 0-0.009 0-0.015 0.004-0.023 0.005-0.053 0.002-0.105 0.013-0.155 0.031-0.013 0.005-0.026 0.008-0.038 0.013-0.006 0.003-0.013 0.003-0.019 0.006l-3.233 1.596c-0.001 0-0.001 0-0.001 0.001l-1.893 0.911c-0.021 0.009-0.042 0.021-0.063 0.035-0.755 0.502-1.012 1.489-0.598 2.295 0.22 0.429 0.595 0.745 1.056 0.889 0.178 0.055 0.359 0.083 0.539 0.083 0.29 0 0.577-0.071 0.839-0.211l1.388-0.738 2.264-1.169 1.357-0.008-5.442 5.416c-0.001 0.001-0.001 0.001-0.002 0.001l-1.339 1.333c-0.316 0.315-0.49 0.732-0.49 1.178s0.174 0.863 0.49 1.179c0.325 0.323 0.752 0.485 1.179 0.485s0.854-0.162 1.18-0.485l1.314-1.309 1.741-1.3 0.901 0.897-1.762 1.754c-0 0.001-0.001 0.001-0.002 0.001l-1.339 1.333c-0.316 0.315-0.49 0.732-0.49 1.178s0.174 0.863 0.49 1.179c0.325 0.323 0.753 0.485 1.18 0.485s0.855-0.162 1.18-0.485l3.482-3.467c0.001-0.001 0.001-0.001 0.001-0.002l1.010-1-0.004-0.004c0.006-0.006 0.015-0.009 0.022-0.015l5.166-5.658 3.471 0.494c0.025 0.004 0.050 0.005 0.075 0.005 0.065 0 0.127-0.015 0.187-0.038 0.018-0.006 0.033-0.015 0.050-0.023 0.019-0.010 0.039-0.015 0.058-0.027l3.213-2.133c0.012-0.008 0.018-0.021 0.029-0.029 0.013-0.010 0.029-0.014 0.041-0.026l1.271-1.191c0.662-0.62 0.753-1.635 0.212-2.362zM2.13 17.77c-0.173 0.093-0.37 0.111-0.558 0.052-0.187-0.058-0.338-0.186-0.427-0.358-0.161-0.314-0.068-0.695 0.214-0.902l1.314-0.632 0.449 1.313-0.992 0.527zM5.628 15.942l-1.548 0.8-0.439-1.283 2.027-1.001-0.040 1.484zM20.727 9.322c0 0.918-0.219 1.785-0.599 2.559l-4.181-1.899c-0.044-0.573-0.341-1.075-0.788-1.388l1.464-4.86c2.378 0.756 4.105 2.974 4.105 5.588zM8.938 9.322c0-3.235 2.644-5.867 5.894-5.867 0.253 0 0.5 0.021 0.745 0.052l-1.432 4.754c-0.019-0.001-0.037-0.006-0.057-0.006-1.033 0-1.873 0.837-1.873 1.867s0.84 1.867 1.873 1.867c0.694 0 1.294-0.383 1.618-0.945l3.862 1.755c-1.075 1.446-2.795 2.39-4.737 2.39-3.25 0-5.894-2.632-5.894-5.867zM14.894 10.122c0 0.441-0.362 0.8-0.806 0.8s-0.806-0.359-0.806-0.8c0-0.441 0.362-0.8 0.806-0.8s0.806 0.359 0.806 0.8zM2.465 25.146c-0.236 0.234-0.619 0.234-0.854 0.001-0.114-0.114-0.176-0.263-0.176-0.423s0.062-0.309 0.176-0.421l0.962-0.958 0.851 0.848-0.959 0.955zM5.679 28.88c-0.236 0.234-0.619 0.235-0.855 0.001-0.114-0.114-0.176-0.263-0.176-0.423s0.062-0.309 0.176-0.421l0.963-0.959 0.852 0.848-0.96 0.955zM9.16 25.411c-0.001 0-0.001 0-0.002 0.001l-1.765 1.76-0.852-0.848 1.763-1.755c0 0 0 0 0-0s0.001-0.001 0.002-0.001c0.040-0.040 0.065-0.088 0.090-0.135 0.007-0.014 0.020-0.026 0.026-0.040 0.017-0.041 0.019-0.085 0.026-0.129 0.003-0.025 0.014-0.047 0.014-0.073 0-0.036-0.013-0.070-0.020-0.106-0.006-0.032-0.006-0.065-0.019-0.095-0.020-0.050-0.055-0.094-0.091-0.138-0.010-0.012-0.014-0.027-0.025-0.038 0 0 0 0-0.001 0s-0.001-0.002-0.001-0.002l-1.607-1.6c-0.017-0.017-0.039-0.024-0.058-0.038-0.028-0.022-0.055-0.042-0.087-0.058-0.030-0.015-0.061-0.024-0.093-0.033-0.034-0.010-0.067-0.017-0.103-0.020-0.033-0.002-0.063 0.001-0.095 0.005-0.036 0.004-0.069 0.009-0.104 0.020-0.034 0.011-0.063 0.027-0.094 0.045-0.020 0.011-0.042 0.015-0.061 0.029l-1.773 1.324-0.901-0.897 2.399-2.386 4.361 4.289-0.928 0.919zM15.979 18.394c-0.015-0.002-0.030 0.004-0.045 0.003-0.039-0.002-0.076 0.001-0.115 0.007-0.030 0.005-0.059 0.011-0.088 0.021-0.034 0.012-0.065 0.028-0.097 0.047-0.030 0.018-0.057 0.037-0.083 0.061-0.013 0.011-0.028 0.017-0.040 0.029l-4.698 5.146-4.328-4.257 2.833-2.818c0.209-0.208 0.21-0.546 0.002-0.755-0.105-0.105-0.243-0.157-0.381-0.156v-0.001l-2.219 0.013 0.028-1.607 3.104 0.027c1.265 1.294 3.029 2.101 4.981 2.101 0.437 0 0.864-0.045 1.279-0.123 0.040 0.032 0.079 0.065 0.13 0.085l2.41 0.96 0.152 0.758 0.178 0.885-3.003-0.427zM20.020 18.572l-0.313-1.558 1.446-1.080 0.947 1.257-2.080 1.381zM23.774 15.741l-0.838 0.785-0.931-1.236 0.831-0.637c0.155-0.119 0.351-0.168 0.543-0.143 0.193 0.027 0.364 0.128 0.48 0.284 0.217 0.292 0.18 0.699-0.085 0.947z"></path>
<path fill="#2e2f42" style="fill: var(--color1, #2e2f42)" d="M13.602 18.544l-2.143-2.133c-0.207-0.207-0.545-0.207-0.753 0l-2.142 2.133c-0.1 0.101-0.157 0.236-0.157 0.378s0.056 0.278 0.157 0.378l2.142 2.133c0.104 0.103 0.241 0.155 0.377 0.155s0.273-0.052 0.376-0.155l2.143-2.133c0.1-0.1 0.157-0.236 0.157-0.378s-0.057-0.278-0.157-0.378zM11.083 20.303l-1.387-1.381 1.387-1.381 1.387 1.381-1.387 1.381z"></path>
<path fill="#2e2f42" style="fill: var(--color1, #2e2f42)" d="M17.164 5.071l-0.258 1.036c0.071 0.018 1.738 0.452 1.738 2.149h1.067c-0-2.017-1.666-2.965-2.547-3.185z"></path>
<path fill="#2e2f42" style="fill: var(--color1, #2e2f42)" d="M19.711 9.322h-1.067v1.067h1.067v-1.067z"></path>
</symbol>

<symbol id="icon-clock" viewBox="0 0 32 32">
<path fill="#2e2f42" style="fill: var(--color1, #2e2f42)" d="M31.297 15.301c-0.002-8.452-6.855-15.303-15.308-15.301s-15.303 6.855-15.301 15.308c0.001 6.658 4.307 12.551 10.649 14.576 0.061 0.019 0.124 0.029 0.187 0.029 0.121-0 0.239-0.032 0.342-0.094 0.135-0.080 0.236-0.207 0.283-0.356l3.865-12.25c1.057-0.005 1.909-0.866 1.903-1.923s-0.866-1.909-1.923-1.903c-0.284 0.001-0.565 0.067-0.82 0.191l-5.106-5.107c-0.253-0.245-0.657-0.238-0.902 0.016-0.239 0.247-0.239 0.639 0 0.886l5.103 5.109c-0.392 0.799-0.168 1.764 0.536 2.309l-3.683 11.673c-7.278-2.681-11.004-10.754-8.323-18.032s10.754-11.004 18.032-8.323c7.278 2.681 11.004 10.754 8.323 18.032-1.31 3.556-4.001 6.431-7.462 7.973l-0.398-1.874c-0.073-0.345-0.411-0.565-0.756-0.492-0.109 0.023-0.209 0.074-0.293 0.148l-3.837 3.426c-0.263 0.234-0.287 0.637-0.052 0.9 0.076 0.085 0.174 0.149 0.283 0.184l4.899 1.564c0.335 0.108 0.694-0.077 0.802-0.412 0.034-0.106 0.040-0.219 0.017-0.328l-0.391-1.839c5.664-2.388 9.342-7.942 9.329-14.089zM15.992 14.664c0.352 0 0.638 0.286 0.638 0.638s-0.286 0.638-0.638 0.638c-0.352 0-0.638-0.285-0.638-0.638s0.285-0.638 0.638-0.638zM18.093 29.528l2.184-1.948 0.603 2.84-2.787-0.892z"></path>
<path fill="#4d5ae5" style="fill: var(--color2, #4d5ae5)" d="M15.354 3.185v1.275c0 0.352 0.285 0.638 0.638 0.638s0.638-0.285 0.638-0.638v-1.275c0-0.352-0.286-0.638-0.638-0.638s-0.638 0.286-0.638 0.638z"></path>
<path fill="#4d5ae5" style="fill: var(--color2, #4d5ae5)" d="M3.876 14.664c-0.352 0-0.638 0.286-0.638 0.638s0.285 0.638 0.638 0.638h1.275c0.352 0 0.638-0.285 0.638-0.638s-0.285-0.638-0.638-0.638h-1.275z"></path>
<path fill="#4d5ae5" style="fill: var(--color2, #4d5ae5)" d="M28.108 15.939c0.352 0 0.638-0.285 0.638-0.638s-0.285-0.638-0.638-0.638h-1.275c-0.352 0-0.638 0.286-0.638 0.638s0.286 0.638 0.638 0.638h1.275z"></path>
</symbol>

<symbol id="icon-diagram" viewBox="0 0 32 32">
<path fill="#4d5ae5" style="fill: var(--color2, #4d5ae5)" d="M14.925 14.965h1.066v4.798h-1.066v-4.797z"></path>
<path fill="#4d5ae5" style="fill: var(--color2, #4d5ae5)" d="M19.19 17.097h1.066v2.665h-1.066v-2.665z"></path>
<path fill="#4d5ae5" style="fill: var(--color2, #4d5ae5)" d="M10.661 18.696h1.066v1.066h-1.066v-1.066z"></path>
<path fill="#4d5ae5" style="fill: var(--color2, #4d5ae5)" d="M7.463 18.163h1.066v1.599h-1.066v-1.599z"></path>
<path fill="#2e2f42" style="fill: var(--color1, #2e2f42)" d="M1.599 28.291h25.587c0.883 0 1.599-0.716 1.599-1.599v-2.132c0-0.883-0.716-1.599-1.599-1.599h-0.533v-13.293l3.028-2.868c0.703 0.346 1.553 0.136 2.013-0.499s0.396-1.508-0.152-2.068-1.42-0.644-2.065-0.198c-0.644 0.446-0.873 1.292-0.542 2.002l-2.281 2.163v-1.23c0-0.883-0.716-1.599-1.599-1.599h-21.322c-0.883 0-1.599 0.716-1.599 1.599v15.992h-0.533c-0.883 0-1.599 0.716-1.599 1.599v2.132c0 0.883 0.716 1.599 1.599 1.599zM30.384 4.837c0.294 0 0.533 0.239 0.533 0.533s-0.239 0.533-0.533 0.533c-0.294 0-0.533-0.239-0.533-0.533s0.239-0.533 0.533-0.533zM3.198 6.969c0-0.294 0.239-0.533 0.533-0.533h21.322c0.294 0 0.533 0.239 0.533 0.533v2.239l-1.066 1.013v-2.186c0-0.294-0.239-0.533-0.533-0.533h-19.19c-0.294 0-0.533 0.239-0.533 0.533v13.326c0 0.294 0.239 0.533 0.533 0.533h19.19c0.294 0 0.533-0.239 0.533-0.533v-9.674l1.066-1.010v12.284h-22.388v-15.992zM7.996 13.899c-0.721-0.002-1.354 0.478-1.546 1.174s0.105 1.433 0.725 1.801c0.62 0.368 1.41 0.276 1.928-0.226l1.853 0.93c0.215 0.108 0.476 0.057 0.636-0.123l3.939-4.431 3.872 2.901c0.208 0.156 0.498 0.139 0.686-0.039l3.365-3.188v8.131h-18.124v-12.26h18.124v2.66l-3.771 3.572-3.904-2.927c-0.222-0.166-0.534-0.135-0.718 0.072l-3.993 4.493-1.493-0.746c0.011-0.064 0.018-0.129 0.020-0.193 0-0.883-0.716-1.599-1.599-1.599zM8.529 15.498c0 0.294-0.239 0.533-0.533 0.533s-0.533-0.239-0.533-0.533c0-0.294 0.239-0.533 0.533-0.533s0.533 0.239 0.533 0.533zM11.727 24.027h5.331v0.533c0 0.294-0.239 0.533-0.533 0.533h-4.264c-0.294 0-0.533-0.239-0.533-0.533v-0.533zM1.066 24.56c0-0.294 0.239-0.533 0.533-0.533h9.062v0.533c0 0.883 0.716 1.599 1.599 1.599h4.264c0.883 0 1.599-0.716 1.599-1.599v-0.533h9.062c0.294 0 0.533 0.239 0.533 0.533v2.132c0 0.294-0.239 0.533-0.533 0.533h-25.587c-0.294 0-0.533-0.239-0.533-0.533v-2.132z"></path>
</symbol>

<symbol id="icon-facebook" viewBox="0 0 32 32">
<path d="M21.329 5.313h2.921v-5.088c-0.504-0.069-2.237-0.225-4.256-0.225-4.212 0-7.097 2.649-7.097 7.519v4.481h-4.648v5.688h4.648v14.312h5.699v-14.311h4.46l0.708-5.688h-5.169v-3.919c0.001-1.644 0.444-2.769 2.735-2.769z"></path>
</symbol>

<symbol id="icon-instagram" viewBox="0 0 32 32">
<path d="M31.969 9.408c-0.075-1.7-0.35-2.869-0.744-3.882-0.406-1.075-1.031-2.038-1.85-2.838-0.8-0.813-1.769-1.444-2.832-1.844-1.019-0.394-2.182-0.669-3.882-0.744-1.713-0.081-2.257-0.1-6.601-0.1s-4.888 0.019-6.595 0.094c-1.7 0.075-2.869 0.35-3.882 0.744-1.075 0.406-2.038 1.031-2.838 1.85-0.813 0.8-1.444 1.769-1.844 2.832-0.394 1.019-0.669 2.182-0.744 3.882-0.081 1.713-0.1 2.257-0.1 6.601s0.019 4.888 0.094 6.595c0.075 1.7 0.35 2.869 0.744 3.882 0.406 1.075 1.038 2.038 1.85 2.838 0.8 0.813 1.769 1.444 2.832 1.844 1.019 0.394 2.182 0.669 3.882 0.744 1.706 0.075 2.25 0.094 6.595 0.094s4.888-0.019 6.595-0.094c1.7-0.075 2.869-0.35 3.882-0.744 2.151-0.831 3.851-2.532 4.682-4.682 0.394-1.019 0.669-2.182 0.744-3.882 0.075-1.707 0.094-2.25 0.094-6.595s-0.006-4.888-0.081-6.595zM29.087 22.473c-0.069 1.563-0.331 2.407-0.55 2.969-0.538 1.394-1.644 2.5-3.038 3.038-0.563 0.219-1.413 0.481-2.969 0.55-1.688 0.075-2.194 0.094-6.464 0.094s-4.782-0.019-6.464-0.094c-1.563-0.069-2.407-0.331-2.969-0.55-0.694-0.256-1.325-0.663-1.838-1.194-0.531-0.519-0.938-1.144-1.194-1.838-0.219-0.563-0.481-1.413-0.55-2.969-0.075-1.688-0.094-2.194-0.094-6.464s0.019-4.782 0.094-6.464c0.069-1.563 0.331-2.407 0.55-2.969 0.256-0.694 0.663-1.325 1.2-1.838 0.519-0.531 1.144-0.938 1.838-1.194 0.563-0.219 1.413-0.481 2.969-0.55 1.688-0.075 2.194-0.094 6.464-0.094 4.276 0 4.782 0.019 6.464 0.094 1.563 0.069 2.407 0.331 2.969 0.55 0.694 0.256 1.325 0.662 1.838 1.194 0.531 0.519 0.938 1.144 1.194 1.838 0.219 0.563 0.481 1.413 0.55 2.969 0.075 1.688 0.094 2.194 0.094 6.464s-0.019 4.77-0.094 6.458z"></path>
<path d="M16.059 7.783c-4.538 0-8.22 3.682-8.22 8.22s3.682 8.22 8.22 8.22c4.538 0 8.22-3.682 8.22-8.22s-3.682-8.22-8.22-8.22zM16.059 21.335c-2.944 0-5.332-2.388-5.332-5.332s2.388-5.332 5.332-5.332c2.944 0 5.332 2.388 5.332 5.332s-2.388 5.332-5.332 5.332z"></path>
<path d="M26.524 7.458c0 1.060-0.859 1.919-1.919 1.919s-1.919-0.859-1.919-1.919c0-1.060 0.859-1.919 1.919-1.919s1.919 0.859 1.919 1.919z"></path>
</symbol>

<svg xmlns="http://www.w3.org/2000/svg" width="40" height="40" viewBox="0 0 40 40" fill="none">
<path d="M40 20C40 25.5228 37.7614 30.5228 34.1421 34.1421C30.5228 37.7614 25.5228 40 20 40C14.4772 40 9.47715 37.7614 5.85786 34.1421C2.23858 30.5228 0 25.5228 0 20C0 14.4772 2.23858 9.47715 5.85786 5.85786C9.47715 2.23858 14.4772 0 20 0C25.5228 0 30.5228 2.23858 34.1421 5.85786C37.7614 9.47715 40 14.4772 40 20Z" fill="#4D5AE5"/>
</svg>

<symbol id="icon-linkedin" viewBox="0 0 32 32">
<path d="M31.992 32v-0.001h0.008v-11.736c0-5.741-1.236-10.164-7.948-10.164-3.227 0-5.392 1.771-6.276 3.449h-0.093v-2.913h-6.364v21.364h6.627v-10.579c0-2.785 0.528-5.479 3.977-5.479 3.399 0 3.449 3.179 3.449 5.657v10.401h6.62z"></path>
<path d="M0.528 10.636h6.635v21.364h-6.635v-21.364z"></path>
<path d="M3.843-0c-2.121 0-3.843 1.721-3.843 3.843s1.721 3.879 3.843 3.879c2.121 0 3.843-1.757 3.843-3.879-0.001-2.121-1.723-3.843-3.843-3.843v0z"></path>
</symbol>

<symbol id="icon-twitter" viewBox="0 0 32 32">
<path d="M32 6.078c-1.19 0.522-2.458 0.868-3.78 1.036 1.36-0.812 2.398-2.088 2.886-3.626-1.268 0.756-2.668 1.29-4.16 1.588-1.204-1.282-2.92-2.076-4.792-2.076-3.632 0-6.556 2.948-6.556 6.562 0 0.52 0.044 1.020 0.152 1.496-5.454-0.266-10.28-2.88-13.522-6.862-0.566 0.982-0.898 2.106-0.898 3.316 0 2.272 1.17 4.286 2.914 5.452-1.054-0.020-2.088-0.326-2.964-0.808 0 0.020 0 0.046 0 0.072 0 3.188 2.274 5.836 5.256 6.446-0.534 0.146-1.116 0.216-1.72 0.216-0.42 0-0.844-0.024-1.242-0.112 0.85 2.598 3.262 4.508 6.13 4.57-2.232 1.746-5.066 2.798-8.134 2.798-0.538 0-1.054-0.024-1.57-0.090 2.906 1.874 6.35 2.944 10.064 2.944 12.072 0 18.672-10 18.672-18.668 0-0.29-0.010-0.57-0.024-0.848 1.302-0.924 2.396-2.078 3.288-3.406z"></path>
</symbol>

<symbol id="icon-client1">
  <path d="m38 7 7.008 6.676L32 13.67v32.39h34V33.676l7 6.669V7H38Zm27.692 25.892-19.87-18.93h19.87v18.93Zm-6.169 8.43H37.38V19.538h1.565v20.31h20.578v1.476Zm-17.727 10.74-.825-1.698h-.681l1.196 2.246v1.309h.617V52.61l1.197-2.246h-.679l-.825 1.697Zm3.042-1.698h.146l1.343 3.555h-.644l-.288-.832h-1.376l-.287.832h-.642l1.338-3.555h.41Zm-.652 2.237h1.041l-.52-1.508-.52 1.508Zm4.296-.59a9.549 9.549 0 0 1-.077-.099 1.82 1.82 0 0 1-.213-.349.86.86 0 0 1-.075-.352c0-.185.038-.344.114-.478a.77.77 0 0 1 .325-.308c.14-.073.304-.11.49-.11a.94.94 0 0 1 .467.11.766.766 0 0 1 .35.984.896.896 0 0 1-.17.254 1.729 1.729 0 0 1-.248.218l-.247.18.704.83a1.407 1.407 0 0 0 .153-.664h.508c0 .173-.017.336-.051.49a1.523 1.523 0 0 1-.26.587l.52.615h-.68l-.207-.243a1.384 1.384 0 0 1-.364.2 1.624 1.624 0 0 1-.552.092c-.236 0-.44-.043-.613-.13a.97.97 0 0 1-.4-.356.975.975 0 0 1-.14-.52.77.77 0 0 1 .09-.38c.061-.111.143-.214.247-.309.096-.087.206-.174.33-.261Zm.292.358-.074.053a.914.914 0 0 0-.193.203.59.59 0 0 0-.034.6.515.515 0 0 0 .198.203.65.65 0 0 0 .32.074.91.91 0 0 0 .393-.09 1.06 1.06 0 0 0 .18-.113l-.79-.93Zm.14-.65.218-.146a.791.791 0 0 0 .22-.2.444.444 0 0 0 .066-.25.354.354 0 0 0-.374-.342.362.362 0 0 0-.339.21.502.502 0 0 0 .015.435c.037.077.088.157.154.242l.04.052Zm6.22 1.043h-.611a1.108 1.108 0 0 1-.112.393.554.554 0 0 1-.247.242.925.925 0 0 1-.422.083.748.748 0 0 1-.369-.086.707.707 0 0 1-.254-.242 1.192 1.192 0 0 1-.146-.373 2.365 2.365 0 0 1-.047-.488v-.3c0-.19.017-.357.051-.504a1.11 1.11 0 0 1 .16-.373.69.69 0 0 1 .26-.23.809.809 0 0 1 .367-.078c.17 0 .309.03.415.088.105.057.185.14.239.25.055.108.091.24.107.392h.61a1.53 1.53 0 0 0-.2-.632 1.128 1.128 0 0 0-.454-.432 1.509 1.509 0 0 0-.717-.157c-.223 0-.424.04-.603.118-.178.078-.33.19-.457.34a1.532 1.532 0 0 0-.293.529c-.067.206-.1.438-.1.693v.296c0 .255.033.486.098.693.066.207.163.383.288.53.125.145.276.257.451.337.176.078.374.117.594.117.286 0 .53-.052.73-.156.2-.105.355-.247.466-.428.11-.182.176-.39.195-.622Zm3.39-.523v-.195c0-.268-.035-.509-.107-.72a1.56 1.56 0 0 0-.3-.545 1.277 1.277 0 0 0-.467-.344c-.18-.08-.38-.12-.6-.12-.218 0-.418.04-.598.12-.18.078-.335.193-.467.344-.13.15-.23.332-.302.545a2.241 2.241 0 0 0-.108.72v.195c0 .269.036.51.108.723a1.6 1.6 0 0 0 .307.544c.132.15.288.265.466.345.181.078.38.117.599.117.22 0 .42-.04.6-.117.18-.08.336-.195.464-.345.13-.15.23-.33.3-.544a2.31 2.31 0 0 0 .105-.723Zm-.612-.2v.2c0 .199-.02.375-.059.528a1.159 1.159 0 0 1-.166.388.73.73 0 0 1-.268.237.813.813 0 0 1-.364.078.807.807 0 0 1-.362-.078.772.772 0 0 1-.273-.237 1.167 1.167 0 0 1-.171-.388 2.144 2.144 0 0 1-.059-.528v-.2c0-.198.02-.373.059-.525.04-.153.095-.28.168-.383a.728.728 0 0 1 .271-.234.787.787 0 0 1 .362-.081c.135 0 .256.027.364.08.107.053.197.13.27.235.075.102.132.23.169.383.04.152.059.327.059.525Z" />
</symbol>

<symbol id="icon-client2">
  <path d="M50.114 5.935h-.137c-.21-.013-.42-.018-.63-.023h-.455c-.397 0-.802.01-1.204.03a.625.625 0 0 0-.091 0A28.275 28.275 0 0 0 37.08 8.625l-.432.208v22.142l1.012-.344c.888-.305 1.834-.58 2.813-.834a34.329 34.329 0 0 1 8.095-1.075v2.909a23.25 23.25 0 0 0-1.065.03h-.084a32.36 32.36 0 0 0-6.228.956 31.635 31.635 0 0 0-7.42 2.892V7.112a29.727 29.727 0 0 1 7.785-3.166A29.793 29.793 0 0 1 48.892 3h.427c.511.013 1.01.036 1.478.071 1.233.087 2.456.282 3.655.583v2.863a22.623 22.623 0 0 0-3.541-.534l-.073-.006c-.247-.021-.494-.042-.724-.042Zm5.039 2.926c.635.049 1.293.072 1.958.072a31.467 31.467 0 0 0 7.713-.99A31.777 31.777 0 0 0 72.24 5.05v27.89a29.815 29.815 0 0 1-7.786 3.166 29.943 29.943 0 0 1-7.337.944 22.405 22.405 0 0 1-5.565-.656V8.322c.43.1.873.191 1.323.267.739.125 1.518.216 2.277.272Zm14.194.217-1.012.34a44.2 44.2 0 0 1-2.813.842 34.263 34.263 0 0 1-8.406 1.078c-.66 0-1.267-.018-1.854-.056l-.807-.053v22.777l.693.06c.642.057 1.305.085 1.973.085a26.884 26.884 0 0 0 6.62-.857 27.764 27.764 0 0 0 5.174-1.86l.432-.208V9.078Z" clip-rule="evenodd"/>
  <path d="M35.737 45.212a1.491 1.491 0 0 0-1.126-.455 1.672 1.672 0 0 0-.65.122 1.464 1.464 0 0 0-.832.842c-.08.2-.119.413-.116.628v3.794c-.01.267.042.533.149.778.09.195.219.368.38.509.151.127.329.22.52.27.185.051.376.078.567.078.211.002.42-.043.612-.132a1.6 1.6 0 0 0 .96-1.465v-.424h-.993v.338a.88.88 0 0 1-.058.338.608.608 0 0 1-.144.214.697.697 0 0 1-.415.145.503.503 0 0 1-.465-.204.898.898 0 0 1-.132-.508v-3.538c-.006-.196.036-.39.122-.567a.507.507 0 0 1 .485-.229.527.527 0 0 1 .443.214.806.806 0 0 1 .164.509v.328h.982v-.387a1.79 1.79 0 0 0-.121-.664 1.56 1.56 0 0 0-.332-.534Zm5.892-.042a1.765 1.765 0 0 0-1.128-.418c-.202 0-.403.037-.592.107A1.56 1.56 0 0 0 39 45.7c-.1.231-.15.482-.145.735v3.638c-.007.256.043.51.145.745.09.196.22.37.384.509.152.14.33.25.524.32.19.07.39.106.592.107a1.714 1.714 0 0 0 1.128-.427c.158-.142.285-.315.374-.509.102-.234.151-.489.145-.745v-3.639a1.77 1.77 0 0 0-.145-.734 1.641 1.641 0 0 0-.374-.532Zm-.463 4.904a.656.656 0 0 1-.197.527.727.727 0 0 1-.934 0 .65.65 0 0 1-.197-.527v-3.639a.653.653 0 0 1 .197-.526.726.726 0 0 1 .934 0 .652.652 0 0 1 .197.526v3.64Zm8.201 1.626v-6.89h-.953l-1.253 3.647h-.017l-1.263-3.646h-.943v6.888h.984v-4.19h.018l.963 2.962h.491l.971-2.962h.018v4.19h.984Zm5.591-6.406c-.151-.17-.343-.3-.556-.377a2.184 2.184 0 0 0-.714-.107h-1.462v6.89h.982v-2.691h.505a1.8 1.8 0 0 0 .886-.188 1.43 1.43 0 0 0 .539-.527c.113-.183.19-.387.225-.6a4.9 4.9 0 0 0 .053-.783c.01-.33-.023-.662-.096-.984a1.466 1.466 0 0 0-.362-.633Zm-.506 2.1a.867.867 0 0 1-.091.359.552.552 0 0 1-.253.241 1.006 1.006 0 0 1-.463.087h-.448v-2.342h.506a.942.942 0 0 1 .443.086.556.556 0 0 1 .23.254 1 1 0 0 1 .086.384v.458c0 .16.01.326 0 .473h-.01Zm5.156-2.584h-.805l-1.518 6.89h.982l.288-1.48h1.339l.288 1.48h.981l-1.555-6.89Zm-.906 4.471.483-2.497h.018l.48 2.497h-.981Zm7.248-.321h-.018l-1.482-4.15h-.944v6.89h.981v-4.143h.02l1.5 4.142h.924v-6.888h-.981v4.15Zm5.998-4.15-.79 2.74h-.02l-.79-2.74H69.31l1.348 3.978v2.911h.982v-2.911l1.348-3.977h-1.04ZM33 53.645h.473v1.327h.321v-1.328h.47v-.272H33v.273Zm3.977-.273-.62 1.6h.341l.132-.364h.638l.136.364h.35l-.636-1.6h-.341Zm-.05.967.217-.593.217.593h-.435Zm3.981.043h.37v.206a.613.613 0 0 1-.38.135.404.404 0 0 1-.34-.153.67.67 0 0 1-.118-.417c0-.356.154-.534.46-.534a.337.337 0 0 1 .362.255l.316-.062c-.068-.312-.293-.47-.678-.47a.804.804 0 0 0-.559.206.78.78 0 0 0-.23.615.872.872 0 0 0 .205.6.776.776 0 0 0 .607.235.96.96 0 0 0 .678-.255v-.63h-.693v.27Zm4.015-1.01h-.324v1.6h1.12V54.7h-.796v-1.328Zm3.395 0h-.324v1.6h.324v-1.6Zm3.318 1.068-.655-1.068h-.313v1.6h.3v-1.045l.643 1.045h.322v-1.6h-.297v1.069Zm3.001-.173h.797v-.272h-.797v-.35h.857v-.273h-1.181v1.6h1.214V54.7h-.89v-.433Zm7.275-.264h-.63v-.63h-.32v1.599h.32v-.7h.63v.7h.322v-1.6h-.322v.631Zm3.018.264h.8v-.272h-.8v-.35h.86v-.273h-1.18v1.6h1.212V54.7h-.89v-.433Zm4.093.001c.279-.044.42-.191.42-.445a.383.383 0 0 0-.157-.356.904.904 0 0 0-.468-.094h-.678v1.599h.322v-.669h.063a.431.431 0 0 1 .2.036.336.336 0 0 1 .114.117l.349.508h.384l-.195-.312a1.115 1.115 0 0 0-.354-.384Zm-.324-.222h-.237v-.401h.253a.84.84 0 0 1 .326.038.21.21 0 0 1-.015.325.913.913 0 0 1-.327.038Zm3.411.221h.796v-.272h-.796v-.35h.86v-.273h-1.184v1.6H73V54.7h-.89v-.433Z"/>
</symbol>

<symbol id="icon-client3">
  <path d="M36.81 49.223c.016 0 .032.004.046.01a.123.123 0 0 1 .04.023l.22.208a1.819 1.819 0 0 1-.62.394c-.28.1-.58.148-.881.141a2.38 2.38 0 0 1-.829-.132 1.822 1.822 0 0 1-.623-.372 1.667 1.667 0 0 1-.403-.576 1.89 1.89 0 0 1-.141-.738 1.763 1.763 0 0 1 .152-.741c.096-.214.242-.41.428-.575a2.01 2.01 0 0 1 .662-.376 2.64 2.64 0 0 1 .853-.132c.27-.005.54.036.792.12.219.082.42.194.594.333l-.185.222a.179.179 0 0 1-.047.04.128.128 0 0 1-.075.017.183.183 0 0 1-.08-.024l-.1-.059-.137-.075a1.604 1.604 0 0 0-.436-.133 1.97 1.97 0 0 0-.329-.023 1.813 1.813 0 0 0-.613.099 1.41 1.41 0 0 0-.48.278c-.138.129-.244.28-.312.444a1.47 1.47 0 0 0-.113.585 1.5 1.5 0 0 0 .113.594 1.262 1.262 0 0 0 .765.715c.18.064.373.096.568.094.113.002.226-.005.337-.019a1.348 1.348 0 0 0 .729-.304.175.175 0 0 1 .105-.038Zm6.376-1.043c.004.25-.047.5-.149.734a1.59 1.59 0 0 1-.416.57c-.184.162-.406.29-.652.373a2.732 2.732 0 0 1-1.678 0 1.944 1.944 0 0 1-.65-.375 1.67 1.67 0 0 1-.419-.575 1.885 1.885 0 0 1 0-1.47c.094-.214.237-.41.42-.578a1.94 1.94 0 0 1 .649-.36c.54-.18 1.138-.18 1.678 0 .245.085.467.212.651.375a1.689 1.689 0 0 1 .566 1.306Zm-.58 0c.005-.2-.03-.4-.104-.59a1.213 1.213 0 0 0-.762-.719 1.971 1.971 0 0 0-1.22 0 1.314 1.314 0 0 0-.467.279 1.184 1.184 0 0 0-.298.44 1.71 1.71 0 0 0 0 1.18c.062.163.164.313.298.441.13.12.29.215.467.276.393.126.826.126 1.22 0 .177-.061.337-.156.466-.276.133-.128.233-.279.296-.441a1.5 1.5 0 0 0 .104-.59Zm4.93.619.058.132c.023-.047.042-.09.064-.132a1.1 1.1 0 0 1 .072-.13l1.41-2.19c.028-.039.053-.062.08-.07a.388.388 0 0 1 .116-.011h.417v3.563h-.494v-2.73a.929.929 0 0 1 0-.123l-1.419 2.221a.203.203 0 0 1-.083.081.252.252 0 0 1-.121.03h-.08a.25.25 0 0 1-.122-.03.2.2 0 0 1-.082-.08l-1.46-2.236v2.86h-.478v-3.556h.417a.389.389 0 0 1 .115.012.155.155 0 0 1 .078.068l1.44 2.193c.029.04.053.084.072.128Zm5.309-.177v1.334h-.552v-3.558h1.23c.233-.004.465.022.688.078.179.043.344.118.486.221a.92.92 0 0 1 .276.35c.065.145.097.299.094.455a.99.99 0 0 1-.4.811 1.42 1.42 0 0 1-.49.236 2.385 2.385 0 0 1-.664.082l-.668-.01Zm0-.382h.668c.145.001.29-.017.428-.055a.94.94 0 0 0 .309-.153.673.673 0 0 0 .254-.535.592.592 0 0 0-.056-.29.687.687 0 0 0-.193-.243 1.202 1.202 0 0 0-.742-.191h-.668v1.467Zm7.419 1.721h-.436a.21.21 0 0 1-.121-.033.224.224 0 0 1-.072-.082l-.375-.861h-1.886l-.389.86a.196.196 0 0 1-.069.08.21.21 0 0 1-.124.036h-.436l1.656-3.563h.574l1.678 3.563Zm-2.732-1.323h1.557l-.657-1.45a2.332 2.332 0 0 1-.125-.335l-.063.186c-.02.057-.041.108-.06.15l-.652 1.45Zm5.118-2.224a.234.234 0 0 1 .082.064l2.416 2.686v-2.766h.494v3.563h-.276a.273.273 0 0 1-.114-.02.3.3 0 0 1-.088-.067l-2.412-2.684a.964.964 0 0 1 0 .123v2.648h-.494v-3.563h.292a.262.262 0 0 1 .1.016Zm7.06 2.13v1.415h-.552v-1.415l-1.526-2.146h.494a.201.201 0 0 1 .119.03.31.31 0 0 1 .074.08l.955 1.385a1.394 1.394 0 0 1 .168.316l.072-.153c.027-.056.059-.11.094-.163l.941-1.394a.376.376 0 0 1 .072-.076.187.187 0 0 1 .119-.035h.5l-1.53 2.156Zm-22.447-8.127c.24.026.483.047.729.066 3.725-1.423 6.875-3.753 9.059-6.699 2.183-2.945 3.302-6.374 3.216-9.86l-4.104-3.507c.834 3.711.444 7.547-1.128 11.08-1.572 3.531-4.263 6.62-7.772 8.92Z"/>
  <path d="m45.797 40.254.11.019c3.75-2.292 6.61-5.492 8.208-9.187 1.599-3.695 1.863-7.714.758-11.539l-5.846-4.995c2.365 4.106 3.317 8.701 2.745 13.25-.572 4.55-2.644 8.868-5.974 12.452Zm19.828-12.212c-.993 3.83-3.406 7.284-6.879 9.85a21.958 21.958 0 0 1-3.268 2.004c2.828-.71 5.428-1.966 7.598-3.67 2.17-1.705 3.854-3.812 4.92-6.16l-2.37-2.024Z"/>
  <path d="m64.695 27.478-3.376-2.884c-.065 3.288-1.159 6.502-3.169 9.307-2.01 2.805-4.863 5.099-8.262 6.643h.017c.757 0 1.514-.039 2.266-.115 3.176-1.108 5.983-2.87 8.168-5.13 2.185-2.26 3.682-4.947 4.356-7.82ZM46.286 12.446 42.26 9c-3.6 1.189-6.697 3.278-8.884 5.995-2.188 2.718-3.364 5.936-3.375 9.234.014 3.643 1.449 7.18 4.08 10.048 2.63 2.868 6.305 4.905 10.442 5.789 3.694-3.846 5.857-8.597 6.174-13.564.317-4.967-1.228-9.89-4.41-14.056ZM74 26.948c-.015-4.323-2.031-8.466-5.61-11.523-3.577-3.057-8.426-4.78-13.486-4.793a21.774 21.774 0 0 0-6.838 1.087l24.659 21.068A14.086 14.086 0 0 0 74 26.947Z"/>
</symbol>

<symbol id="icon-client4">
  <g class="Logo">
    <g class="group">
      <path d="M24.078 21.518h-.003c-2.385 0-4.32 1.744-4.32 3.894v.003c0 2.15 1.935 3.894 4.32 3.894h.003c2.386 0 4.32-1.743 4.32-3.894v-.003c0-2.15-1.934-3.894-4.32-3.894Zm31.883-1.245c-.006-2.988-1.325-5.85-3.668-7.964C49.95 10.197 46.775 9.007 43.46 9c-3.314.005-6.491 1.195-8.835 3.308-2.344 2.113-3.664 4.977-3.67 7.965v16.474s25.003-2.51 25.005-16.471v-.003ZM11 42.154c.006 2.079.924 4.071 2.554 5.541 1.63 1.47 3.84 2.299 6.145 2.305 2.305-.006 4.514-.834 6.144-2.304 1.63-1.47 2.548-3.46 2.555-5.54V30.695S11 32.442 11 42.154Zm8.699 2.054c-.45 0-.891-.12-1.266-.346a2.115 2.115 0 0 1-.839-.922 1.867 1.867 0 0 1-.13-1.186 2 2 0 0 1 .624-1.052 2.365 2.365 0 0 1 1.167-.562c.442-.08.9-.039 1.316.117.416.155.772.419 1.022.756.25.338.384.735.384 1.141.001.27-.057.539-.171.789-.114.25-.282.477-.493.669a2.31 2.31 0 0 1-.74.447 2.495 2.495 0 0 1-.874.157v-.008Z" class="Vector"/>
      <path d="M35.609 40.515v4.266h-.879v-4.266h.879Zm1.7 1.822v.686h-1.94v-.686h1.94Zm.204-1.822v.688H35.37v-.688h2.144Zm4.014 2.033v.202c0 .325-.044.616-.132.873a1.92 1.92 0 0 1-.372.66c-.16.18-.352.317-.574.413a1.83 1.83 0 0 1-.736.143c-.267 0-.512-.048-.735-.143a1.648 1.648 0 0 1-.574-.413 1.93 1.93 0 0 1-.378-.66 2.696 2.696 0 0 1-.132-.873v-.202c0-.326.044-.617.132-.873a1.92 1.92 0 0 1 .372-.659c.162-.182.353-.32.574-.416a1.84 1.84 0 0 1 .736-.144c.27 0 .514.048.735.144.223.096.414.234.574.416.162.182.287.401.375.66.09.255.135.546.135.872Zm-.888.202v-.208c0-.226-.02-.425-.061-.597a1.295 1.295 0 0 0-.182-.434.784.784 0 0 0-.293-.264.838.838 0 0 0-.395-.09c-.149 0-.28.03-.396.09a.791.791 0 0 0-.29.264 1.333 1.333 0 0 0-.179.434 2.587 2.587 0 0 0-.061.597v.208c0 .225.02.424.061.598.041.172.102.317.182.437.08.117.178.206.293.266.115.06.247.091.395.091.149 0 .28-.03.396-.09a.786.786 0 0 0 .29-.267c.078-.12.138-.265.179-.437a2.61 2.61 0 0 0 .061-.598Zm3.741.914a.563.563 0 0 0-.035-.205.388.388 0 0 0-.123-.17 1.09 1.09 0 0 0-.255-.155 3.587 3.587 0 0 0-.425-.158 5.377 5.377 0 0 1-.55-.211 2.261 2.261 0 0 1-.457-.272 1.228 1.228 0 0 1-.31-.367 1.01 1.01 0 0 1-.112-.483 1 1 0 0 1 .117-.483c.078-.147.188-.272.328-.375.14-.106.307-.187.498-.244a2.28 2.28 0 0 1 .636-.085c.314 0 .589.057.823.17.234.114.416.269.545.466.13.197.196.423.196.677h-.873a.658.658 0 0 0-.079-.328.535.535 0 0 0-.234-.226.835.835 0 0 0-.393-.082.908.908 0 0 0-.38.07.507.507 0 0 0-.23.185.454.454 0 0 0-.075.258c0 .072.017.138.052.196a.594.594 0 0 0 .165.164c.072.051.16.099.266.144.106.045.228.089.366.132.233.07.437.149.613.237.177.088.326.186.445.296.12.11.209.233.27.372.06.139.09.296.09.472a1.024 1.024 0 0 1-.422.87c-.136.101-.3.178-.489.231a2.36 2.36 0 0 1-.636.08c-.21 0-.419-.028-.624-.083a1.894 1.894 0 0 1-.56-.255 1.285 1.285 0 0 1-.398-.433 1.242 1.242 0 0 1-.149-.624h.882c0 .133.02.245.061.337a.563.563 0 0 0 .173.222.743.743 0 0 0 .27.123c.105.026.22.038.345.038a.939.939 0 0 0 .375-.064.463.463 0 0 0 .293-.437Zm3.384-3.149v4.266h-.876v-4.266h.876Zm1.313 0v.688h-3.48v-.688h3.48Zm3.363 3.58v.686h-2.27v-.686h2.27Zm-1.983-3.58v4.266h-.88v-4.266h.88Zm1.687 1.737v.668h-1.975v-.668h1.975Zm.293-1.737v.688h-2.268v-.688h2.268Zm.516 0h1.59c.327 0 .607.049.841.146.237.098.418.243.545.434.127.191.19.427.19.706 0 .229-.038.425-.117.589a1.1 1.1 0 0 1-.325.407 1.685 1.685 0 0 1-.489.258l-.278.147h-1.383l-.006-.686h1.028a.805.805 0 0 0 .384-.082.537.537 0 0 0 .229-.229.703.703 0 0 0 .079-.34.773.773 0 0 0-.076-.354.514.514 0 0 0-.232-.228.855.855 0 0 0-.39-.08h-.712v3.578h-.878v-4.266Zm2.384 4.266-.972-1.902.928-.006.985 1.867v.04h-.94Zm4.615-1.52h-1.087v-.686h1.087a.892.892 0 0 0 .41-.082.527.527 0 0 0 .231-.235.86.86 0 0 0 0-.691.592.592 0 0 0-.231-.264.76.76 0 0 0-.41-.1h-.783v3.578h-.878v-4.266h1.66c.335 0 .62.06.86.182.24.119.423.284.55.495.127.21.19.452.19.723 0 .276-.063.514-.19.715-.127.201-.31.357-.55.466-.24.11-.525.164-.86.164Zm5.068.834v.686h-2.27v-.686h2.27Zm-1.983-3.58v4.266h-.88v-4.266h.88Zm1.687 1.737v.668H62.75v-.668h1.975Zm.293-1.737v.688H62.75v-.688h2.267Zm2.482 0v4.266h-.876v-4.266h.876Zm1.312 0v.688h-3.48v-.688h3.48Zm3.363 3.58v.686h-2.27v-.686h2.27Zm-1.983-3.58v4.266h-.879v-4.266h.879Zm1.687 1.737v.668h-1.974v-.668h1.974Zm.293-1.737v.688h-2.267v-.688h2.267Zm.516 0h1.59a2.2 2.2 0 0 1 .842.146c.236.098.418.243.545.434.126.191.19.427.19.706 0 .229-.04.425-.117.589a1.103 1.103 0 0 1-.325.407 1.687 1.687 0 0 1-.49.258l-.278.147h-1.383l-.006-.686h1.029a.805.805 0 0 0 .383-.082.538.538 0 0 0 .229-.229.704.704 0 0 0 .08-.34.771.771 0 0 0-.077-.354.514.514 0 0 0-.231-.228.855.855 0 0 0-.39-.08h-.712v3.578h-.879v-4.266Zm2.385 4.266-.973-1.902.929-.006.984 1.867v.04h-.94Zm3.68-1.117a.565.565 0 0 0-.036-.205.388.388 0 0 0-.123-.17 1.09 1.09 0 0 0-.255-.155 3.587 3.587 0 0 0-.424-.158 5.377 5.377 0 0 1-.551-.211 2.261 2.261 0 0 1-.457-.272 1.228 1.228 0 0 1-.31-.367 1.01 1.01 0 0 1-.112-.483 1 1 0 0 1 .117-.483c.078-.147.188-.272.328-.375.14-.106.307-.187.498-.244a2.28 2.28 0 0 1 .636-.085c.314 0 .589.057.823.17.235.114.416.269.545.466.131.197.196.423.196.677h-.873a.658.658 0 0 0-.079-.328.535.535 0 0 0-.234-.226.835.835 0 0 0-.393-.082.908.908 0 0 0-.38.07.507.507 0 0 0-.229.185.454.454 0 0 0-.076.258c0 .072.017.138.052.196a.594.594 0 0 0 .165.164c.072.051.16.099.266.144.106.045.228.089.366.132.233.07.437.149.613.237.177.088.326.186.445.296.12.11.209.233.27.372.06.139.09.296.09.472a1.024 1.024 0 0 1-.422.87c-.136.101-.3.178-.489.231-.19.053-.401.08-.635.08-.211 0-.42-.028-.624-.083a1.894 1.894 0 0 1-.56-.255 1.285 1.285 0 0 1-.399-.433 1.242 1.242 0 0 1-.149-.624h.882c0 .133.02.245.061.337a.563.563 0 0 0 .173.222.743.743 0 0 0 .27.123c.105.026.22.038.346.038a.939.939 0 0 0 .374-.064.463.463 0 0 0 .293-.437Z" class="FOSTER PETERS"/>
    </g>
  </g>
</symbol>

<symbol id="icon-client5">
  <path d="M26.792 44.373c.245.274.376.616.37.968.012.229-.033.458-.132.67-.1.211-.25.4-.441.552a2.68 2.68 0 0 1-1.664.446H22v-6.132h2.865a2.647 2.647 0 0 1 1.588.407c.184.14.331.316.428.515.096.2.14.416.127.633.017.338-.101.67-.333.937a1.59 1.59 0 0 1-.871.48c.388.064.738.25.988.524Zm-3.431-.926h1.225a1.25 1.25 0 0 0 .778-.203.732.732 0 0 0 .21-.272.662.662 0 0 0 .053-.328.686.686 0 0 0-.055-.325.753.753 0 0 0-.204-.274 1.28 1.28 0 0 0-.802-.206H23.36v1.608Zm2.123 2.352a.77.77 0 0 0 .226-.281.694.694 0 0 0 .064-.342.704.704 0 0 0-.067-.346.781.781 0 0 0-.23-.283 1.366 1.366 0 0 0-.832-.222h-1.284v1.687h1.301c.293.015.583-.06.822-.213Zm7.165 1.211-1.594-2.397h-.6v2.396h-1.37v-6.132h2.595a2.752 2.752 0 0 1 1.807.521c.363.333.582.772.617 1.237.036.465-.115.926-.424 1.3-.32.33-.757.551-1.238.624l1.697 2.45h-1.49Zm-2.193-3.233h1.121c.779 0 1.168-.31 1.168-.929a.831.831 0 0 0-.063-.371.908.908 0 0 0-.223-.318 1.307 1.307 0 0 0-.882-.248h-1.135l.014 1.866Zm9.687 1.998H37.41l-.483 1.234H35.49L38 40.946h1.554l2.499 6.063h-1.438l-.472-1.234Zm-.366-.928-.999-2.589-.998 2.588h1.997Zm9.746 2.163h-1.36l-3.052-4.17v4.17h-1.358v-6.133h1.358l3.051 4.194v-4.194h1.361v6.132Zm7.767-1.469a2.82 2.82 0 0 1-1.231 1.082c-.592.27-1.25.402-1.913.386h-2.423v-6.132h2.423a4.472 4.472 0 0 1 1.913.377c.521.237.95.61 1.231 1.07.28.499.426 1.05.426 1.609a3.28 3.28 0 0 1-.426 1.608Zm-1.557-.146a2.12 2.12 0 0 0 .602-1.464 2.12 2.12 0 0 0-.602-1.463 2.536 2.536 0 0 0-1.704-.522h-.945v3.97h.945a2.536 2.536 0 0 0 1.704-.521ZM40.995 6.767s17.566 5.97 17.194 14.61v14.614S40.635 30.017 41 21.377l-.006-14.61ZM73.839 32.57c3.317-2.056 7.155-3.33 11.161-3.703v-4.575c-4.616 1.601-8.531 4.505-11.161 8.277Z"/>
  <path d="M71.846 33.948C74.56 29.025 79.269 25.227 85 23.334V10.152s-25.018 8.505-24.489 20.809v20.806s1.115-.38 2.869-1.094c0-.665 0-1.336.08-2.01.518-5.712 3.534-11.005 8.386-14.715Z"/>
  <path d="M69.466 41.677a19.57 19.57 0 0 1 .876-4.26c-3.022 3.204-4.851 7.18-5.232 11.369-.036.395-.056.79-.066 1.198a75.86 75.86 0 0 0 4.812-2.282 19.43 19.43 0 0 1-.39-6.025Zm.995.075a18.567 18.567 0 0 0 .31 5.455c6.835-3.682 14.515-9.37 14.219-16.246v-.6c-4.883.493-9.452 2.415-13.005 5.471a18.817 18.817 0 0 0-1.524 5.92Z"/>
</symbol>

<symbol id="icon-client6">
  <path d="M53.53 27.443a2.953 2.953 0 0 1-.607-1.992v-2.888c0-.885.201-1.558.603-2.018.402-.46 1.092-.69 2.07-.688.92 0 1.572.196 1.958.588.42.5.625 1.111.578 1.727v.68h-1.644v-.688c.006-.225-.01-.45-.048-.673a.652.652 0 0 0-.234-.4.951.951 0 0 0-.596-.155 1.007 1.007 0 0 0-.627.164.769.769 0 0 0-.272.44 3.342 3.342 0 0 0-.065.715v3.505a1.79 1.79 0 0 0 .211.984.772.772 0 0 0 .328.239c.133.051.28.07.425.055.21.015.42-.042.582-.159a.706.706 0 0 0 .245-.426 3.84 3.84 0 0 0 .051-.702v-.711h1.645v.65a2.643 2.643 0 0 1-.57 1.815c-.377.429-1.02.643-1.967.643-.946 0-1.661-.229-2.067-.705Zm6.846.03c-.415-.45-.623-1.105-.623-1.972v-3.038c0-.858.208-1.507.623-1.948.416-.44 1.11-.66 2.084-.658.967 0 1.658.22 2.073.658.416.441.627 1.09.627 1.948v3.038c0 .858-.211 1.516-.633 1.969-.423.452-1.11.678-2.067.678-.957 0-1.665-.229-2.084-.675Zm2.85-.729c.149-.282.217-.59.197-.899v-3.72a1.65 1.65 0 0 0-.194-.88.776.776 0 0 0-.335-.243.907.907 0 0 0-.434-.052.92.92 0 0 0-.435.053.789.789 0 0 0-.338.241c-.15.275-.218.578-.197.881v3.738c-.021.309.047.617.197.899.096.094.214.17.347.223a1.161 1.161 0 0 0 .845 0 1.05 1.05 0 0 0 .347-.223v-.018Zm3.912-6.798h1.77l1.332 5.605 1.361-5.605h1.723l.174 8.09h-1.274l-.136-5.622-1.314 5.622h-1.021l-1.362-5.643-.126 5.643h-1.287l.16-8.09Zm8.345 0h2.758c1.588 0 2.383.766 2.383 2.297 0 1.467-.837 2.2-2.51 2.198h-.939v3.596h-1.702l.01-8.091Zm2.356 3.458c.168.018.339.005.5-.04.162-.043.31-.117.436-.216a1.31 1.31 0 0 0 .245-.913 2.53 2.53 0 0 0-.081-.735.596.596 0 0 0-.126-.222.705.705 0 0 0-.215-.163 1.763 1.763 0 0 0-.76-.129h-.66v2.418h.66Zm5.24-3.458h1.828l1.876 8.09h-1.587l-.37-1.865h-1.631l-.382 1.866h-1.61l1.876-8.091Zm1.563 5.288-.637-3.396-.637 3.396h1.273Zm3.656-5.288h1.192l2.28 4.615v-4.615h1.414v8.09H92.05l-2.295-4.817v4.817h-1.46l.003-8.09Zm8.195 5.006-1.896-4.995h1.597l1.157 3.208 1.086-3.208H100l-1.873 4.995v3.084h-1.634v-3.084Zm-40.335 6.622v.423h-1.39v3.287h-.581v-3.287H52.79v-.423h3.367Zm4.354 3.71h-.45a.2.2 0 0 1-.125-.035.193.193 0 0 1-.075-.085l-.402-.881h-1.927l-.402.881a.243.243 0 0 1-.06.1.208.208 0 0 1-.127.035h-.45l1.703-3.71h.592l1.723 3.695Zm-2.819-1.377H59.3l-.68-1.51a2.703 2.703 0 0 1-.127-.35c-.024.07-.044.138-.064.197l-.062.156-.674 1.507Zm5.754 1.013c.107.005.214.005.32 0a1.94 1.94 0 0 0 .273-.044 2.1 2.1 0 0 0 .245-.067c.075-.027.15-.06.228-.092v-.834h-.681a.142.142 0 0 1-.05-.006.128.128 0 0 1-.042-.023.086.086 0 0 1-.026-.03.075.075 0 0 1-.008-.038v-.285h1.321v1.422a2.57 2.57 0 0 1-.718.303 3.22 3.22 0 0 1-.426.076 5.153 5.153 0 0 1-.497.024 2.596 2.596 0 0 1-.858-.139 2.092 2.092 0 0 1-.681-.387 1.792 1.792 0 0 1-.44-.588 1.854 1.854 0 0 1-.156-.77 1.923 1.923 0 0 1 .153-.775c.098-.22.248-.42.44-.588a2.07 2.07 0 0 1 .68-.385c.292-.095.602-.141.913-.138.159 0 .317.01.473.032.139.02.274.051.405.094.12.039.234.088.34.147.105.058.204.123.297.194l-.163.23a.143.143 0 0 1-.056.05.17.17 0 0 1-.077.02.222.222 0 0 1-.106-.03 2.103 2.103 0 0 1-.166-.088 1.51 1.51 0 0 0-.229-.1 2.137 2.137 0 0 0-.313-.082 2.625 2.625 0 0 0-.432-.032 2.018 2.018 0 0 0-.657.103 1.44 1.44 0 0 0-.5.294c-.142.133-.25.29-.318.46a1.733 1.733 0 0 0 0 1.238c.075.174.191.333.341.467.14.127.31.227.497.294.217.064.446.089.674.073Zm5.427-.059h1.86v.423h-2.428v-3.71h.582l-.014 3.287Zm3.793.423h-.582v-3.71h.582v3.71Zm2.165-3.693a.28.28 0 0 1 .09.068l2.488 2.797a.884.884 0 0 1 0-.132v-2.765h.507v3.726h-.293a.276.276 0 0 1-.126-.021.33.33 0 0 1-.092-.07l-2.485-2.795v2.886h-.487v-3.711h.303c.033 0 .066.006.096.017Zm7.372-.017v.408H80.14v1.225h1.671v.394H80.14v1.266h2.063v.408H79.54v-3.701h2.663ZM21.195 8.659l25.852 6.334v22.195l-25.852-6.33v-22.2Zm-1.658-1.892v25.168l29.165 7.148V13.918L19.537 6.767Z"/>
  <path d="M35.168 50.767 6 43.613V18.447l29.168 7.15v25.17Z"/>
  <path d="m20.02 8.374 25.515 6.254-10.85 9.366-25.519-6.258L20.02 8.374Zm-.483-1.607L6 18.447l29.168 7.151 13.534-11.68-29.165-7.151ZM36.81 49.35l11.892-10.264-11.893-2.917v13.182Z"/>
</symbol>

<symbol id="icon-close" viewBox="0 0 32 32">
  <path
    d="M32 3.223l-3.223-3.223-12.777 12.777-12.777-12.777-3.223 3.223 12.777 12.777-12.777 12.777 3.223 3.223 12.777-12.777 12.777 12.777 3.223-3.223-12.777-12.777 12.777-12.777z">
  </path>
</symbol>

<symbol id="icon-send" viewBox="0 0 32 32">
  <path fill="#fff" style="fill: var(--color1, #fff)" d="M32 2.667l-32 15 10.227 3.156 15.773-12.323-11.997 13.488 0.009 0.004-0.012-0.004v7.345l5.735-5.576 7.267 2.243 4.999-23.333z"></path>
</symbol>

<symbol id="icon-person" viewBox="0 0 32 32">
  <path d="M16 16c2.946 0 5.333-2.388 5.333-5.333s-2.388-5.333-5.333-5.333v0c-2.946 0-5.333 2.388-5.333 5.333s2.388 5.333 5.333 5.333v0zM16 18.667c-3.561 0-10.667 1.787-10.667 5.333v1.333c0 0.732 0.599 1.333 1.333 1.333h18.667c0.732 0 1.333-0.601 1.333-1.333v-1.333c0-3.547-7.108-5.333-10.667-5.333z"></path>
</symbol>

<symbol id="icon-phone" viewBox="0 0 24 32">
  <path d="M19.635 18.487l-2.451-0.28c-0.067-0.008-0.145-0.013-0.223-0.013-0.531 0-1.012 0.215-1.36 0.564l-1.775 1.775c-2.752-1.42-4.94-3.607-6.322-6.278l-0.038-0.081 1.787-1.785c0.347-0.347 0.562-0.827 0.562-1.358 0-0.079-0.005-0.156-0.014-0.233l0.001 0.009-0.28-2.432c-0.115-0.966-0.93-1.708-1.918-1.708-0.001 0-0.002 0-0.002 0h-1.669c-1.091 0-1.997 0.907-1.929 1.997 0.511 8.24 7.101 14.821 15.332 15.333 1.091 0.067 1.997-0.84 1.997-1.931v-1.669c0-0.003 0-0.007 0-0.011 0-0.981-0.739-1.789-1.69-1.899l-0.009-0.001z"></path>
</symbol>

<symbol id="icon-email" viewBox="0 0 24 32">
  <path d="M20 8h-16c-1.1 0-1.989 0.9-1.989 2l-0.011 12c0 1.1 0.9 2 2 2h16c1.1 0 2-0.9 2-2v-12c0-1.1-0.9-2-2-2zM19.6 12.251l-7.069 4.419c-0.151 0.094-0.334 0.15-0.531 0.15s-0.38-0.056-0.535-0.153l0.004 0.002-7.069-4.419c-0.252-0.15-0.418-0.422-0.418-0.731 0-0.469 0.38-0.849 0.849-0.849 0.174 0 0.337 0.053 0.471 0.143l6.697 4.187 6.7-4.191c0.132-0.088 0.294-0.141 0.468-0.141 0.469 0 0.849 0.38 0.849 0.849 0 0.31-0.166 0.581-0.414 0.729l-0.004 0.002z"></path>
</symbol>

<symbol id="icon-checkbox" viewBox="0 0 13 10">
  <path d="M1.95703 4.75166L1.88825 4.68604L1.81923 4.75141L0.93123 5.59258L0.854858 5.66492L0.930974 5.73753L4.42671 9.07236L4.49574 9.1382L4.56476 9.07236L12.069 1.91352L12.1449 1.84116L12.069 1.76881L11.1873 0.927644L11.1183 0.861826L11.0493 0.927611L4.49577 7.17353L1.95703 4.75166Z"/>
</symbol>

</defs>
</svg>

